<svg xmlns="http://www.w3.org/2000/svg" width="1254" height="1254" viewBox="0 0 1254 1254" fill="none" role="img" aria-labelledby="title desc">
  <title id="title">Identra logo — design system variant</title>
  <desc id="desc">Geometric Identra monogram using the SSI design system blue gradient.</desc>
  <defs>
    <linearGradient id="identraGradient" x1="250" y1="180" x2="1010" y2="1060" gradientUnits="userSpaceOnUse">
      <stop offset="0" stop-color="#60A5FA"/>
      <stop offset="0.38" stop-color="#3B82F6"/>
      <stop offset="0.68" stop-color="#5B6CFF"/>
      <stop offset="1" stop-color="#5B6CFF"/>
    </linearGradient>
  </defs>
  <g fill="url(#identraGradient)" shape-rendering="geometricPrecision">
    <path d="M 635.0 123.0 L 619.0 123.0 L 609.0 126.0 L 603.0 129.0 L 595.0 135.0 L 590.0 137.0 L 570.0 150.0 L 555.0 158.0 L 550.0 162.0 L 517.0 181.0 L 512.0 185.0 L 507.0 187.0 L 428.0 235.0 L 423.0 237.0 L 351.0 281.0 L 331.0 292.0 L 326.0 296.0 L 316.0 301.0 L 311.0 305.0 L 306.0 307.0 L 296.0 314.0 L 269.0 329.0 L 259.0 339.0 L 254.0 348.0 L 252.0 354.0 L 252.0 359.0 L 251.0 360.0 L 251.0 831.0 L 252.0 832.0 L 253.0 840.0 L 260.0 853.0 L 264.0 858.0 L 270.0 863.0 L 295.0 877.0 L 313.0 889.0 L 323.0 894.0 L 328.0 898.0 L 341.0 905.0 L 346.0 909.0 L 389.0 934.0 L 394.0 938.0 L 429.0 959.0 L 430.0 959.0 L 430.0 839.0 L 380.0 809.0 L 375.0 805.0 L 370.0 803.0 L 360.0 796.0 L 352.0 792.0 L 346.0 785.0 L 346.0 401.0 L 347.0 398.0 L 352.0 393.0 L 618.0 233.0 L 624.0 230.0 L 630.0 230.0 L 635.0 232.0 L 739.0 295.0 L 749.0 300.0 L 754.0 304.0 L 759.0 306.0 L 764.0 310.0 L 769.0 312.0 L 821.0 344.0 L 831.0 349.0 L 836.0 353.0 L 841.0 355.0 L 901.0 391.0 L 904.0 394.0 L 906.0 398.0 L 906.0 407.0 L 907.0 408.0 L 907.0 443.0 L 906.0 444.0 L 906.0 448.0 L 907.0 449.0 L 907.0 458.0 L 906.0 459.0 L 906.0 483.0 L 907.0 484.0 L 907.0 488.0 L 906.0 489.0 L 906.0 495.0 L 907.0 496.0 L 907.0 520.0 L 906.0 521.0 L 906.0 562.0 L 907.0 563.0 L 907.0 582.0 L 906.0 583.0 L 906.0 596.0 L 907.0 597.0 L 907.0 603.0 L 906.0 604.0 L 907.0 607.0 L 907.0 616.0 L 906.0 617.0 L 906.0 624.0 L 907.0 625.0 L 907.0 644.0 L 906.0 645.0 L 906.0 668.0 L 907.0 669.0 L 907.0 673.0 L 906.0 674.0 L 906.0 703.0 L 907.0 704.0 L 907.0 715.0 L 906.0 716.0 L 906.0 721.0 L 908.0 721.0 L 1002.0 664.0 L 1002.0 363.0 L 1001.0 362.0 L 1001.0 355.0 L 999.0 348.0 L 993.0 337.0 L 989.0 332.0 L 983.0 327.0 L 963.0 315.0 L 958.0 313.0 L 911.0 284.0 L 906.0 282.0 L 884.0 268.0 L 879.0 266.0 L 857.0 252.0 L 852.0 250.0 L 776.0 204.0 L 771.0 202.0 L 761.0 195.0 L 756.0 193.0 L 739.0 182.0 L 712.0 167.0 L 702.0 160.0 L 667.0 139.0 L 662.0 137.0 L 652.0 130.0 Z"/>
    <path d="M 578.0 357.0 L 508.0 399.0 L 503.0 403.0 L 485.0 413.0 L 478.0 420.0 L 472.0 432.0 L 472.0 984.0 L 592.0 1056.0 L 602.0 1063.0 L 610.0 1067.0 L 617.0 1069.0 L 632.0 1070.0 L 633.0 1069.0 L 637.0 1069.0 L 644.0 1067.0 L 652.0 1063.0 L 657.0 1059.0 L 662.0 1057.0 L 677.0 1047.0 L 730.0 1016.0 L 735.0 1012.0 L 740.0 1010.0 L 760.0 997.0 L 835.0 953.0 L 840.0 949.0 L 863.0 936.0 L 868.0 932.0 L 906.0 910.0 L 911.0 906.0 L 986.0 861.0 L 997.0 847.0 L 997.0 845.0 L 1000.0 839.0 L 1001.0 830.0 L 1002.0 829.0 L 1002.0 735.0 L 1000.0 735.0 L 963.0 757.0 L 958.0 761.0 L 907.0 791.0 L 899.0 797.0 L 894.0 799.0 L 889.0 803.0 L 866.0 816.0 L 822.0 844.0 L 812.0 849.0 L 807.0 853.0 L 682.0 928.0 L 677.0 932.0 L 654.0 945.0 L 649.0 949.0 L 639.0 954.0 L 634.0 958.0 L 631.0 959.0 L 621.0 958.0 L 616.0 954.0 L 606.0 949.0 L 601.0 945.0 L 582.0 934.0 L 579.0 931.0 L 578.0 928.0 Z"/>
    <path d="M 675.0 357.0 L 674.0 358.0 L 674.0 835.0 L 770.0 778.0 L 777.0 770.0 L 781.0 760.0 L 781.0 432.0 L 780.0 431.0 L 780.0 428.0 L 776.0 420.0 L 771.0 414.0 Z"/>
  </g>
</svg>